# xmcd CD database file generated by Grip 3.2.0
# 
# Track frame offsets:
#       150
#       14102
#       29082
#       42605
#       60202
#       71687
#       87257
#       105655
#       133570
#       150245
#       165755
#       178672
#       197400
# 
# Disc length: 2800 seconds
# 
# Revision: 3
# Processed by: cddbd v1.5.2PL0 Copyright (c) Steve Scherf et al.
# Submitted via: Grip 3.2.0
# 
DISCID=a30aee0d
DTITLE=Pam Tillis - It's All Relative (Tillis Sings Tillis)
DYEAR=2002
DGENRE=Country
TTITLE0=Burning Memories
TTITLE1=So Wrong
TTITLE2=Unmitigated Gall
TTITLE3=Violet And A Rose
TTITLE4=I Ain't Never
TTITLE5=Not Like It Was With You
TTITLE6=Mental Revenge
TTITLE7=Heart Over Mind
TTITLE8=Goodbye Wheeling
TTITLE9=Emotions
TTITLE10=Honey (Open That Door) With Ray Benson
TTITLE11=Detroit City
TTITLE12=Come On And Sing
EXTD=
EXTT0=
EXTT1=
EXTT2=
EXTT3=
EXTT4=
EXTT5=
EXTT6=
EXTT7=
EXTT8=
EXTT9=
EXTT10=
EXTT11=
EXTT12=
PLAYORDER=
